***************************************************************

[IMG]http://www.hotimg.org/images/67363952943939111394.png[/IMG]

***************************************************************

[IMG]http://www.hotimg.org/images/81445830513695401776.jpg[/IMG]

***************************************************************

FILM TITLE: The Woman Knight of Mirror Lake (2011)

***************************************************************

Genre:  Drama    

Release:   13 October 2011 (Hong Kong)

Director: Herman Yau

Writer: Erica Lee

Stars: Kevin Cheng, Pat Ha and Yi Huang

Country: Hong Kong

Language: Mandarin | Cantonese 

Plot:
When the women of her time had their feet bound to please men, 
Qiu Jin (Crystal Huang) was already questioning the sexual inequality 
of feudal traditions. Free-spirited and well-educated, she grew up 
practicing martial arts and was as well versed in poetry as she was 
in sword-fighting. When this rebellious girl moved to Beijing with 
her husband (Kevin Cheng), she witnessed how her country was raided 
and ravaged by foreign powers.

IMDB Rating: 6.1/10 from 82 users  
 
http://www.imdb.com/title/tt1993428/

****************************************************************

[url=http://www.imagezon3.com/images/JXPM9.png][img]http://www.imagezon3.com/images/thumbs/JXPM9.png[/img][/url]
[url=http://www.imagezon3.com/images/hB06f.png][img]http://www.imagezon3.com/images/thumbs/hB06f.png[/img][/url]
[url=http://www.imagezon3.com/images/7NiRJ.png][img]http://www.imagezon3.com/images/thumbs/7NiRJ.png[/img][/url]
[url=http://www.imagezon3.com/images/xse2S.png][img]http://www.imagezon3.com/images/thumbs/xse2S.png[/img][/url]
[url=http://www.imagezon3.com/images/zbMVr.png][img]http://www.imagezon3.com/images/thumbs/zbMVr.png[/img][/url]

****************************************************************

General
Unique ID                        : 170470227928785104819770526481840462930 (0x803F5F2512FAB58EA05F8C0A1F0DDC52)
Complete name                    : The Woman Knight Of Mirror Lake 2011 720p BDRip x264 (mkv) [GREYSHADOW].mkv
Format                           : Matroska
Format version                   : Version 2
File size                        : 3.78 GiB
Duration                         : 1h 54mn
Overall bit rate                 : 4741 Kbps
Encoded date                     : UTC 2012-02-21 14:51:39
Writing application              : mkvmerge v5.3.0 ('I could have danced') built on Feb  9 2012 10:38:07
Writing library                  : libebml v1.2.3 + libmatroska v1.3.0

Video
ID                               : 1
Format                           : AVC
Format/Info                      : Advanced Video Codec
Format profile                   : High@L4.1
Format settings, CABAC           : Yes
Format settings, ReFrames        : 12 frames
Muxing mode                      : Header stripping
Codec ID                         : V_MPEG4/ISO/AVC
Duration                         : 1h 54mn
Bit rate                         : 4100 Kbps
Width                            : 1280 pixels
Height                           : 544 pixels
Display aspect ratio             : 2.35:1
Frame rate                       : 24.000 fps
Color space                      : YUV
Chroma subsampling               : 4:2:0
Bit depth                        : 8 bits
Scan type                        : Progressive
Bits/(Pixel*Frame)               : 0.245
Stream size                      : 3.19 GiB (85%)
Title                            : AVC MPEG4 Video
Writing library                  : x264 core 120 r2164 da19765
Language                         : Chinese
Color primaries                  : BT.709-5, BT.1361, IEC 61966-2-4, SMPTE RP177
Transfer characteristics         : BT.709-5, BT.1361
Matrix coefficients              : BT.709-5, BT.1361, IEC 61966-2-4 709, SMPTE RP177

Audio
ID                               : 2
Format                           : AC-3
Format/Info                      : Audio Coding 3
Mode extension                   : CM (complete main)
Muxing mode                      : Header stripping
Codec ID                         : A_AC3
Duration                         : 1h 54mn
Bit rate mode                    : Constant
Bit rate                         : 640 Kbps
Channel(s)                       : 6 channels
Channel positions                : Front: L C R, Side: L R, LFE
Sampling rate                    : 48.0 KHz
Bit depth                        : 16 bits
Compression mode                 : Lossy
Stream size                      : 522 MiB (13%)
Title                            : AC3 5.1 640 kbps Audio
Language                         : Chinese

Text
ID                               : 3
Format                           : UTF-8
Codec ID                         : S_TEXT/UTF8
Codec ID/Info                    : UTF-8 Plain Text
Title                            : English .sup to .srt Subtitles edited by greyshadow
Language                         : English

****************************************************************

Video Source: The Woman Knight Of Mirror Lake 2011 BluRay 1080p AVC DTS-HD MA-HDChina (21.4GB)

Thanks: chdbits.org

****************************************************************

I provide a small sample, so please download this to check your 
compatibility first if you are unsure.

****************************************************************

I have provided tutorials here :- 
http://tutorials4all.freeforums.org/index.php?sid=fb109f91dedb2901c4d0b39625c431f7
This is for opening my mkv encodes, remuxing to Bluray for PS3 or mkv or mp4 with 
additional or selected audio or subtitles which I will now start supplying, so if your
fed up finding the right encode to match your player - DO IT YOURSELF - it's simples.

I allow transfer of my encodes to any site, just give me credit (Thanks: GREYSHADOW)

****************************************************************